<?xml version="1.0" encoding="UTF-8"?>
<svg xmlns="http://www.w3.org/2000/svg" xmlns:xlink="http://www.w3.org/1999/xlink" viewBox="0 0 48 48" width="48px" height="48px">
<g id="surface219691379">
<path style=" stroke:none;fill-rule:nonzero;fill:rgb(100%,100%,100%);fill-opacity:1;" d="M 9 6 C 5.15625 6 2 9.15625 2 13 L 2 36 C 2 39.289062 4.710938 42 8 42 L 16 42 L 16 27.347656 L 24 33.597656 L 32 27.347656 L 32 42 L 40 42 C 43.289062 42 46 39.289062 46 36 L 46 13 C 46 9.15625 42.84375 6 39 6 C 37.5 6 35.964844 6.484375 34.6875 7.484375 L 24 15.824219 L 13.3125 7.484375 L 13.308594 7.484375 C 12.03125 6.484375 10.5 6 9 6 Z M 9 10 C 9.660156 10 10.285156 10.195312 10.847656 10.636719 L 12 11.535156 L 12 19.148438 L 6 14.464844 L 6 13 C 6 11.320312 7.320312 10 9 10 Z M 39 10 C 40.679688 10 42 11.320312 42 13 L 42 14.464844 L 36 19.148438 L 36 11.535156 L 37.152344 10.636719 C 37.714844 10.195312 38.339844 10 39 10 Z M 16 14.65625 L 24 20.898438 L 32 14.65625 L 32 22.273438 L 24 28.523438 L 16 22.273438 Z M 6 19.539062 L 12 24.222656 L 12 38 L 8 38 C 6.871094 38 6 37.128906 6 36 Z M 42 19.539062 L 42 36 C 42 37.128906 41.128906 38 40 38 L 36 38 L 36 24.222656 Z M 42 19.539062 "/>
</g>
</svg>
