<?xml version="1.0" encoding="UTF-8"?>
<svg xmlns="http://www.w3.org/2000/svg" xmlns:xlink="http://www.w3.org/1999/xlink" viewBox="0 0 48 48" width="48px" height="48px">
<g id="surface219705348">
<path style=" stroke:none;fill-rule:nonzero;fill:rgb(100%,100%,100%);fill-opacity:1;" d="M 40.109375 15.425781 C 38.757812 13.742188 36.765625 12.605469 34.582031 12.195312 C 33.546875 7.941406 29.753906 6 26.089844 6 L 14.113281 6 C 12.851562 6 11.757812 6.816406 11.378906 8.019531 C 11.347656 8.097656 11.324219 8.183594 11.304688 8.269531 L 6.066406 32.523438 C 6.050781 32.605469 6.039062 32.691406 6.03125 32.773438 C 6.011719 32.898438 6 33.027344 6 33.121094 C 6 34.707031 7.296875 36 8.886719 36 L 13.519531 36 L 12.984375 38.523438 C 12.96875 38.605469 12.957031 38.6875 12.949219 38.765625 C 12.933594 38.890625 12.917969 39.019531 12.917969 39.113281 C 12.921875 40.707031 14.21875 42 15.808594 42 L 22.328125 42 C 22.441406 42 22.550781 41.988281 22.660156 41.96875 C 23.757812 41.84375 24.683594 41.097656 25.042969 40.042969 C 25.085938 39.945312 25.117188 39.839844 25.140625 39.730469 L 26.949219 32 L 29.746094 32 C 36.476562 32 40.507812 29.109375 41.722656 23.410156 C 42.554688 19.503906 41.304688 16.910156 40.109375 15.425781 Z M 10.273438 32 L 15.023438 10 L 26.089844 10 C 26.675781 10 29.089844 10.121094 30.246094 12.027344 L 20.835938 12.027344 C 19.582031 12.027344 18.492188 12.828125 18.109375 14.007812 C 18.070312 14.105469 18.042969 14.207031 18.023438 14.308594 L 15.953125 24.492188 L 14.367188 32 Z M 37.8125 22.574219 C 37 26.375 34.585938 28 29.746094 28 L 26.03125 28 C 24.386719 28 23.355469 29.304688 23.222656 30.394531 L 21.441406 38 L 17.1875 38 L 19.730469 26 L 22.617188 26 C 31.136719 26 33.949219 21.210938 34.804688 17.195312 C 34.859375 16.941406 34.894531 16.683594 34.921875 16.433594 C 35.675781 16.734375 36.417969 17.21875 36.996094 17.933594 C 37.941406 19.113281 38.214844 20.675781 37.8125 22.574219 Z M 37.8125 22.574219 "/>
</g>
</svg>
